<?xml version="1.0" encoding="UTF-8"?>
<svg id="Layer_1" xmlns="http://www.w3.org/2000/svg" version="1.1" viewBox="0 0 800 800">
  <!-- Generator: Adobe Illustrator 30.0.0, SVG Export Plug-In . SVG Version: 2.1.1 Build 123)  -->
  <defs>
    <style>
      .st0 {
        fill: none;
        stroke: #231f20;
        stroke-miterlimit: 10;
        stroke-width: 85px;
      }
    </style>
  </defs>
  <path class="st0" d="M262.06,674.39c-33.66-24.43-58.85-56-86.4-102.94-28.36-48.33-46.7-91.6-58.82-125-20.71-57.04-27.26-96.14-29.41-110.29-7.85-51.65-3.86-78.82,0-95.59,4.35-18.9,8.68-71.79,86.7-96.2,20.93-6.55,48.94-7.03,71.69-1.53s65.99,36.51,78.74,48.1c20.45,18.6,39.22,37.07,39.22,37.07,0,0,13.4-23.05,34.31-48.1,1.22-1.46,22.38-22.54,51.47-39.77,14.76-8.74,35.94-21.29,66.18-26.4,42.62-7.21,112.82-6.29,156.2,42,71.01,79.05,2.22,410.21-72.71,481.48-5.78,5.5-39.11,39.11-65.57,44.06-16.38,3.07-36.09,1.21-52.85-4.6-23.9-8.27-48.3-19.67-55.15-22.52-11.8-4.91-16.53-7.5-24.84-7.35-13.27.23-20.89,7.18-37.66,18.38-26.05,17.4-39.99,21.5-54.23,22.98-13.92,1.44-26.73.83-46.87-13.79Z"/>
</svg>